<svg xmlns="http://www.w3.org/2000/svg" version="1.1" xmlns:xlink="http://www.w3.org/1999/xlink" xmlns:svgjs="http://svgjs.com/svgjs" width="1500" height="200" preserveAspectRatio="none" viewBox="0 0 1500 200"><g mask="url(&quot;#SvgjsMask1018&quot;)" fill="none"><path d="M 0,166 C 75,150.2 225,88.6 375,87 C 525,85.4 600,172 750,158 C 900,144 975,26 1125,17 C 1275,8 1425,93.8 1500,113L1500 200L0 200z" fill="rgba(30, 61, 243, 0.43)"></path><path d="M 0,49 C 75,78.6 225,190.4 375,197 C 525,203.6 600,92.4 750,82 C 900,71.6 975,155.6 1125,145 C 1275,134.4 1425,52.2 1500,29L1500 200L0 200z" fill="rgba(30, 145, 243, 0.6)"></path><path d="M 0,73 C 100,96.4 300,185.8 500,190 C 700,194.2 800,100.8 1000,94 C 1200,87.2 1400,143.6 1500,156L1500 200L0 200z" fill="rgba(30, 145, 243, 1)"></path></g><defs><mask id="SvgjsMask1018"><rect width="1500" height="200" fill="#ffffff"></rect></mask></defs></svg>