<svg xmlns="http://www.w3.org/2000/svg" version="1.1" xmlns:xlink="http://www.w3.org/1999/xlink" xmlns:svgjs="http://svgjs.com/svgjs" width="1440" height="560" preserveAspectRatio="none" viewBox="0 0 1440 560"><g mask="url(&quot;#SvgjsMask1272&quot;)" fill="none"><path d="M 0,18 C 96,41.2 288,135.8 480,134 C 672,132.2 768,3 960,9 C 1152,15 1344,133 1440,164L1440 560L0 560z" fill="rgba(68, 137, 124, 0)"></path><path d="M 0,304 C 96,290 288,224 480,234 C 672,244 768,357 960,354 C 1152,351 1344,246 1440,219L1440 560L0 560z" fill="rgba(30, 145, 243, 1)"></path><path d="M 0,484 C 144,464.4 432,370.8 720,386 C 1008,401.2 1296,525.2 1440,560L1440 560L0 560z" fill="rgba(42, 43, 215, 0.53)"></path></g><defs><mask id="SvgjsMask1272"><rect width="1440" height="560" fill="#ffffff"></rect></mask></defs></svg>